<svg width="40" height="44" viewBox="0 0 40 44" fill="none" xmlns="http://www.w3.org/2000/svg">
<path d="M35.0656 9.63052L21.1304 2.46386C20.5635 2.1723 19.8915 2.16848 19.3213 2.45358L6.80843 8.71001C5.34195 9.44325 5.33228 11.5326 6.79191 12.2794L20.5996 19.3438C21.1659 19.6335 21.8361 19.6366 22.405 19.3521L35.5625 12.7734C36.8923 12.1085 38.4569 13.0755 38.4569 14.5623V33.4056C38.4569 34.1631 38.0289 34.8556 37.3513 35.1944L24.3946 41.6728C23.0648 42.3377 21.5002 41.3707 21.5002 39.8839V24.4319C21.5002 23.6744 21.0722 22.9819 20.3946 22.6431L4.89443 14.893C3.56463 14.2281 2 15.1951 2 16.6818V32.1338C2 32.8914 2.428 33.5839 3.10557 33.9227L18.1089 41.4243" stroke="black" stroke-width="2.5"/>
</svg>
